<svg width="17" height="25" viewBox="0 0 17 25" fill="none" xmlns="http://www.w3.org/2000/svg">
<path d="M16.9809 18.1179C16.4724 16.6183 15.3949 15.5789 14.0245 15.2643C12.4073 14.8931 10.5949 15.5302 8.85783 17.0603V15.2639H8.87031C9.53729 15.2639 10.8997 15.145 11.7853 14.2594C12.97 13.075 12.7828 11.038 12.7746 10.9527C12.7664 10.8704 12.73 10.7935 12.6715 10.735C12.613 10.6765 12.536 10.64 12.4537 10.6318C12.4298 10.6296 12.2523 10.6142 11.9878 10.6175C12.9477 9.4173 12.7826 7.61762 12.7746 7.53662C12.7664 7.45432 12.7299 7.37741 12.6714 7.31893C12.6129 7.26044 12.536 7.22398 12.4537 7.21571C12.4298 7.21346 12.2523 7.19812 11.9878 7.20139C12.9477 6.0014 12.7826 4.20151 12.7746 4.12072C12.7664 4.03839 12.73 3.96144 12.6715 3.90294C12.613 3.84444 12.536 3.808 12.4537 3.7998C11.6826 3.74127 10.908 3.85097 10.1834 4.12133C10.3018 3.80029 10.364 3.46127 10.3675 3.11912C10.3675 1.44399 8.79504 0.136007 8.72795 0.0809878C8.66396 0.028615 8.58382 0 8.50112 0C8.41843 0 8.33829 0.028615 8.2743 0.0809878C8.20721 0.136007 6.63476 1.44399 6.63476 3.11912C6.6382 3.46127 6.70047 3.80029 6.81884 4.12133C6.09426 3.8511 5.31965 3.7414 4.54853 3.7998C4.46589 3.80743 4.38846 3.84352 4.32948 3.9019C4.2705 3.96028 4.23362 4.03734 4.22516 4.1199C4.21718 4.20069 4.05213 6.0016 5.012 7.20057C4.74754 7.1973 4.57 7.21264 4.54607 7.21489C4.46377 7.22316 4.38687 7.25962 4.32838 7.31811C4.2699 7.3766 4.23343 7.45351 4.22516 7.5358C4.21718 7.61762 4.05213 9.41751 5.012 10.6167C4.74754 10.6134 4.57 10.6287 4.54607 10.631C4.46363 10.6393 4.38661 10.6758 4.3281 10.7345C4.26959 10.7931 4.23321 10.8703 4.22516 10.9527C4.21677 11.0388 4.02963 13.0758 5.21428 14.2602C6.10011 15.1461 7.4623 15.2647 8.12928 15.2647H8.14176V17.0611C6.40487 15.5302 4.59332 14.8922 2.97526 15.2643C1.60489 15.5789 0.52741 16.6183 0.0189417 18.1179C-0.00767723 18.1965 -0.00620037 18.2818 0.0231198 18.3594C0.05244 18.4369 0.107784 18.5019 0.179698 18.5432C0.251611 18.5845 0.335631 18.5996 0.417404 18.5858C0.499177 18.572 0.573629 18.5303 0.628041 18.4677C1.09655 18.0072 1.68098 17.682 2.31932 17.5268C1.60101 18.1563 1.10588 19.0014 0.908046 19.9358C0.890331 20.0179 0.902011 20.1035 0.941044 20.1778C0.980077 20.2521 1.04398 20.3103 1.12159 20.3423C1.19919 20.3743 1.28556 20.378 1.36561 20.3527C1.44565 20.3275 1.51427 20.2749 1.55948 20.2042C1.82088 19.7951 2.91738 18.9528 4.38204 18.7667C5.72336 18.5961 7.02051 19.0336 8.14135 20.0291V23.8792C8.14135 23.9741 8.17906 24.0652 8.24619 24.1323C8.31331 24.1994 8.40436 24.2371 8.49928 24.2371C8.59421 24.2371 8.68526 24.1994 8.75238 24.1323C8.81951 24.0652 8.85722 23.9741 8.85722 23.8792V20.0289C9.97826 19.0334 11.2748 18.5955 12.6165 18.7665C14.0822 18.9526 15.1787 19.7947 15.4401 20.204C15.4853 20.2747 15.5539 20.3272 15.634 20.3525C15.714 20.3778 15.8004 20.3741 15.878 20.3421C15.9556 20.3101 16.0195 20.2519 16.0585 20.1776C16.0976 20.1033 16.1093 20.0176 16.0915 19.9356C15.8936 19.0013 15.3985 18.1562 14.6803 17.5266C15.3187 17.6818 15.9033 18.0069 16.372 18.4675C16.4264 18.53 16.5008 18.5718 16.5826 18.5856C16.6644 18.5993 16.7484 18.5843 16.8203 18.543C16.8922 18.5017 16.9476 18.4367 16.9769 18.3592C17.0062 18.2816 17.0077 18.1963 16.9811 18.1177L16.9809 18.1179ZM12.0721 11.3323H12.0741C12.0753 11.8846 11.9864 13.0465 11.2797 13.7532C10.5767 14.4562 9.41375 14.547 8.86028 14.547H8.85885C8.85885 14.5345 8.85885 14.52 8.85885 14.5061C8.86192 13.9401 8.96112 12.816 9.65285 12.1253C9.87491 11.9097 10.1373 11.7399 10.425 11.6256C10.5272 11.5939 10.6295 11.5571 10.733 11.5162C11.1682 11.3918 11.619 11.3299 12.0717 11.3323H12.0721ZM12.0721 7.91664H12.0741C12.0753 8.46888 11.9864 9.63063 11.2797 10.3375C11.0531 10.5571 10.7849 10.7292 10.4908 10.8437C10.3939 10.874 10.2971 10.9077 10.2004 10.946C9.7646 11.0705 9.31331 11.1325 8.86008 11.1301H8.85885C8.85885 11.1176 8.85885 11.1033 8.85885 11.0892C8.86192 10.523 8.96112 9.3991 9.65285 8.70819C9.87496 8.49261 10.1373 8.32283 10.425 8.20851C10.5272 8.17701 10.6295 8.13999 10.733 8.09909C11.1683 7.97508 11.619 7.91358 12.0717 7.91644L12.0721 7.91664ZM12.0721 4.50094H12.0743C12.0755 5.05318 11.9866 6.21493 11.2799 6.92179C11.0535 7.14137 10.7854 7.31342 10.4914 7.42781C10.3943 7.45828 10.2969 7.49224 10.2 7.53008C9.7644 7.65464 9.31332 7.71662 8.86028 7.71415H8.85906C8.85906 7.70147 8.85906 7.68716 8.85906 7.67325C8.86213 7.1071 8.96132 5.98319 9.65305 5.29249C10.355 4.59176 11.518 4.50033 12.0715 4.50033L12.0721 4.50094ZM8.4999 0.846145C8.89117 1.23742 9.6504 2.12427 9.6504 3.11912C9.6504 4.11397 8.89096 5.00082 8.4999 5.39209C8.10863 5.00082 7.3494 4.11397 7.3494 3.11912C7.3494 2.12427 8.10883 1.23742 8.4999 0.846145ZM5.7205 6.92077C5.01711 6.21718 4.92671 5.05298 4.92671 4.49992H4.92834C5.48222 4.49992 6.64478 4.59094 7.34776 5.29371C8.04747 5.99362 8.14053 7.14883 8.14135 7.70536V7.71518H8.13051C7.68805 7.71748 7.24744 7.65786 6.8215 7.53805C6.71351 7.49428 6.60511 7.45624 6.49691 7.42351C6.20761 7.30872 5.94377 7.13802 5.7205 6.92118V6.92077ZM5.7205 10.3365C5.0167 9.63247 4.9265 8.46745 4.92671 7.9148H4.93755C5.38143 7.91257 5.82344 7.9726 6.25065 8.09315C6.36232 8.13836 6.47441 8.17844 6.58629 8.2126C6.8699 8.32723 7.12852 8.49589 7.34776 8.70921C8.04747 9.40932 8.14053 10.5645 8.14135 11.1209V11.1309C7.70048 11.135 7.26122 11.0771 6.83643 10.9591C6.72005 10.9112 6.60286 10.8715 6.48607 10.8363C6.2009 10.7213 5.94087 10.5518 5.7205 10.3373V10.3365ZM5.7205 13.7522C5.0167 13.0484 4.9265 11.8834 4.92671 11.3307H4.93755C5.38144 11.3284 5.82346 11.3884 6.25065 11.5091C6.36232 11.5543 6.47441 11.5943 6.58629 11.6285C6.8699 11.7431 7.12852 11.9118 7.34776 12.1251C8.04747 12.825 8.14053 13.98 8.14135 14.5366V14.546H8.13992C7.58605 14.547 6.42348 14.456 5.7205 13.7532V13.7522ZM3.13541 15.9611C4.66204 15.6104 6.43575 16.3497 8.14197 18.0386V18.688C6.62065 17.2319 5.1566 16.7539 4.04251 16.6592H4.03638C3.87009 16.6455 3.71096 16.6387 3.56125 16.6402C2.79551 16.6432 2.03903 16.8077 1.34125 17.1231C1.78452 16.5375 2.41963 16.1265 3.13541 15.9619V15.9611ZM4.29245 18.0555C3.53914 18.1537 2.81295 18.401 2.15631 18.7831C2.5991 18.1108 3.26265 17.6141 4.03249 17.3787C4.88051 17.4707 5.6948 17.7617 6.40896 18.2282C5.7231 18.0242 5.00222 17.9657 4.29245 18.0564V18.0555ZM14.8558 18.7904C14.1962 18.4043 13.466 18.1544 12.7082 18.0555C12.0009 17.9656 11.2827 18.0236 10.599 18.2259C11.3142 17.763 12.1278 17.4737 12.9747 17.3812C13.7485 17.6143 14.4149 18.1138 14.8558 18.7912V18.7904ZM13.4385 16.6406H13.4216C13.2919 16.6406 13.154 16.6471 13.0125 16.658C13.0105 16.658 13.0086 16.658 13.0066 16.658H13.0045C12.9888 16.6585 12.9732 16.6601 12.9577 16.6627C11.845 16.7592 10.3806 17.2335 8.85865 18.6898V18.0394C10.5649 16.3503 12.3384 15.6114 13.8652 15.9619C14.5807 16.1266 15.2155 16.5376 15.6585 17.1231C14.9607 16.8079 14.2043 16.6434 13.4385 16.6406Z" fill="#EFB443"/>
</svg>
